<svg xmlns="http://www.w3.org/2000/svg" fill="none" viewBox="0 0 106 40" width="106" height="40">
    <rect rx="10" width="106" height="40" fill="#121212"/>
    <path stroke-linejoin="round" d="M14.812 26.048s1.765 1.905 3.457 3.337l3.214-3.962 1.043.625c1.46-2.502-.222-3.952-.222-3.952 1.822-.26 1.432-2.994 1.432-2.994-.911-1.041-1.041-2.082-.911-2.733.12-.54-.071-1.1-.26-1.432l1.17-1.302.879.108c0-2.085-3.364-3.128-3.754-3.128-.39 0-1.42.807-1.68 1.719l-3.124.26c-.41-4.482-6.589.473-6.459 1.775l1.043-.417 1.381 1.896c-2.083 1.562-2.424 4.986-2.424 4.986l1.773-.3c-.911 1.822-.65 3.905-.65 3.905l1.589-.685c.13 1.692 1.46 3.546 1.46 3.546l1.043-1.252Z" stroke="#fcfcfc" stroke-width="1.25" fill="#046fab"/>
    <path stroke-linejoin="round" d="M16.056 12.594c-.651 0-1.036.524-2.08 1.775-1.042 1.252-.524 1.089-2.346 1.74M19.18 12.334c1.041.26 2.473 1.041 3.384 2.603M11.37 20.534s.781-1.432 2.473-2.213c-1.822.781-2.473 2.213-2.473 2.213Z" stroke="#fcfcfc" stroke-width="1.25" fill="#046fab"/>
    <path d="M21.565 18.982s-1.562-.26-1.302.911c.318 1.432 2.473.781 2.343-.13 0-.78-1.041-.78-1.041-.78Z" fill="#fcfcfc"/>
    <path stroke-linejoin="round" d="M22.434 22.096c-1.171 0-3.451.198-4.703-.636 1.458 1.251 5.63-.417 5.212 3.337.417-1.669-.415-2.294-.509-2.7Z" stroke="#fcfcfc" stroke-width="1.25" fill="#046fab"/>
    <path d="M48.683 14.454h3.04v10.143c0 .937-.21 1.752-.632 2.443a4.178 4.178 0 0 1-1.74 1.598c-.743.374-1.608.56-2.592.56-.876 0-1.672-.153-2.387-.46a3.814 3.814 0 0 1-1.69-1.421c-.417-.64-.623-1.442-.618-2.408h3.061c.01.384.088.713.234.987a1.6 1.6 0 0 0 .618.625c.266.142.578.213.938.213.379 0 .698-.08.959-.241.265-.166.466-.407.603-.724.138-.318.206-.708.206-1.172V14.454Zm8.637 14.752c-.696 0-1.317-.12-1.861-.362a2.997 2.997 0 0 1-1.293-1.087c-.312-.483-.468-1.084-.468-1.804 0-.606.11-1.115.333-1.527.223-.412.526-.743.91-.994.383-.251.819-.44 1.306-.568a9.955 9.955 0 0 1 1.548-.27 39.237 39.237 0 0 0 1.535-.185c.388-.061.67-.151.845-.27.175-.118.263-.293.263-.525v-.043c0-.45-.143-.798-.427-1.044-.279-.246-.677-.37-1.193-.37-.544 0-.977.121-1.3.363a1.666 1.666 0 0 0-.639.895l-2.798-.227a3.802 3.802 0 0 1 .838-1.72c.417-.487.954-.861 1.612-1.121.663-.266 1.43-.398 2.301-.398.606 0 1.187.07 1.74.213a4.554 4.554 0 0 1 1.485.66c.435.299.779.682 1.03 1.151.25.464.376 1.02.376 1.669V29h-2.87v-1.513h-.084c-.176.341-.41.642-.704.902a3.254 3.254 0 0 1-1.058.604c-.412.142-.888.213-1.427.213Zm.866-2.088c.445 0 .838-.088 1.18-.263.34-.18.608-.421.802-.724.194-.303.29-.647.29-1.03v-1.158a1.62 1.62 0 0 1-.39.17 7.093 7.093 0 0 1-.547.136 27.1 27.1 0 0 1-.61.106l-.554.078a3.745 3.745 0 0 0-.93.249 1.488 1.488 0 0 0-.619.462c-.147.189-.22.426-.22.71 0 .412.15.727.448.944.303.213.686.32 1.15.32Zm16.701-5.916-2.77.17a1.43 1.43 0 0 0-.305-.639 1.62 1.62 0 0 0-.618-.462 2.099 2.099 0 0 0-.902-.177c-.469 0-.864.1-1.186.298-.322.194-.483.455-.483.781 0 .26.104.48.312.66.209.18.566.325 1.073.434l1.974.398c1.06.218 1.852.568 2.372 1.05.521.484.782 1.118.782 1.904 0 .715-.211 1.343-.632 1.882-.417.54-.99.962-1.72 1.265-.724.298-1.56.447-2.506.447-1.444 0-2.595-.3-3.452-.902-.852-.606-1.352-1.43-1.498-2.471l2.975-.157c.09.44.308.777.654 1.009.345.227.788.34 1.328.34.53 0 .956-.101 1.278-.305.327-.208.493-.476.497-.802a.835.835 0 0 0-.348-.675c-.227-.18-.577-.317-1.05-.412l-1.89-.376c-1.065-.213-1.858-.583-2.38-1.108-.515-.526-.773-1.196-.773-2.01 0-.701.189-1.305.568-1.811.383-.507.92-.898 1.612-1.172.696-.275 1.51-.412 2.443-.412 1.378 0 2.462.291 3.253.873.795.583 1.26 1.376 1.392 2.38Zm2.154 11.889v-15h2.983v1.832h.135a4 4 0 0 1 .575-.895c.256-.307.587-.563.994-.767.412-.208.924-.312 1.535-.312a4.1 4.1 0 0 1 2.201.625c.672.412 1.21 1.034 1.612 1.868.403.828.604 1.868.604 3.118 0 1.216-.196 2.244-.59 3.082-.388.833-.918 1.466-1.59 1.896a4.084 4.084 0 0 1-2.245.64c-.587 0-1.086-.098-1.498-.292a3.1 3.1 0 0 1-1.002-.731 3.714 3.714 0 0 1-.596-.902h-.093v5.838h-3.025Zm2.962-9.546c0 .65.09 1.215.27 1.698.18.483.44.86.78 1.13.342.264.756.397 1.244.397.492 0 .909-.135 1.25-.405.34-.275.599-.653.774-1.136.18-.488.27-1.05.27-1.683 0-.63-.088-1.184-.263-1.662-.175-.479-.433-.853-.774-1.123s-.76-.404-1.257-.404c-.493 0-.91.13-1.25.39-.337.26-.595.63-.775 1.108-.18.478-.27 1.042-.27 1.69ZM89.697 29V18.09h2.933v1.904h.114c.199-.677.533-1.188 1.001-1.534a2.632 2.632 0 0 1 1.62-.525 4.56 4.56 0 0 1 .952.106v2.685a3.95 3.95 0 0 0-.59-.114 5.304 5.304 0 0 0-.689-.05 2.42 2.42 0 0 0-1.193.292c-.346.19-.62.454-.824.795a2.296 2.296 0 0 0-.298 1.18V29h-3.026ZM56.92 14V7.455h2.397c.464 0 .849.076 1.154.23.304.15.532.357.684.616.15.258.226.55.226.873 0 .273-.05.503-.15.69-.1.186-.234.335-.403.448-.166.11-.349.192-.55.243v.064c.218.01.43.08.637.21.209.128.381.31.517.547.137.237.205.524.205.863 0 .334-.079.635-.236.901-.156.264-.397.474-.723.63-.326.153-.742.23-1.25.23H56.92Zm.987-.847h1.426c.473 0 .812-.092 1.016-.275a.884.884 0 0 0 .307-.687c0-.207-.052-.396-.157-.569a1.118 1.118 0 0 0-.447-.412 1.433 1.433 0 0 0-.684-.154h-1.46v2.097Zm0-2.867h1.323c.222 0 .421-.042.598-.128.18-.085.32-.204.425-.358a.95.95 0 0 0 .16-.55.908.908 0 0 0-.284-.68c-.19-.183-.48-.275-.873-.275h-1.349v1.991Zm7.934 1.678V9.091h.96V14h-.94v-.85h-.052c-.112.262-.294.48-.543.655-.247.173-.555.259-.924.259a1.66 1.66 0 0 1-.837-.208 1.46 1.46 0 0 1-.569-.623c-.136-.275-.204-.615-.204-1.02V9.091h.955v3.007c0 .335.093.601.278.8a.944.944 0 0 0 .723.297 1.172 1.172 0 0 0 .978-.54c.119-.182.178-.412.175-.69ZM68.084 14V9.09h.956V14h-.956Zm.483-5.667a.607.607 0 0 1-.428-.166.54.54 0 0 1-.176-.402c0-.158.058-.292.176-.403a.601.601 0 0 1 .428-.17.59.59 0 0 1 .425.17.53.53 0 0 1 .179.403c0 .155-.06.29-.18.402a.596.596 0 0 1-.424.166Zm2.714-.878V14h-.956V7.455h.956Zm3.577 1.636v.767h-2.681v-.767h2.681Zm-1.962-1.176h.955v4.644c0 .185.028.325.084.418a.434.434 0 0 0 .214.189c.09.032.186.048.29.048.077 0 .144-.005.202-.016.057-.01.102-.02.134-.026l.173.79a1.873 1.873 0 0 1-.62.102 1.683 1.683 0 0 1-.704-.134 1.206 1.206 0 0 1-.527-.435c-.134-.196-.201-.442-.201-.738V7.915ZM79.36 14l-1.444-4.91h.987l.962 3.606h.048l.965-3.605h.988l.959 3.589h.048l.955-3.59h.988L83.376 14H82.4l-.997-3.544h-.074L80.333 14h-.972Zm6.363 0V9.09h.956V14h-.956Zm.483-5.667a.608.608 0 0 1-.429-.166.54.54 0 0 1-.176-.402c0-.158.059-.292.176-.403a.601.601 0 0 1 .428-.17.59.59 0 0 1 .425.17.53.53 0 0 1 .18.403c0 .155-.06.29-.18.402a.596.596 0 0 1-.424.166Zm4.05.758v.767h-2.682v-.767h2.682Zm-1.963-1.176h.956v4.644c0 .185.028.325.083.418a.434.434 0 0 0 .214.189c.09.032.187.048.291.048.077 0 .144-.005.201-.016.058-.01.103-.02.135-.026l.172.79a1.873 1.873 0 0 1-.62.102 1.683 1.683 0 0 1-.703-.134 1.206 1.206 0 0 1-.527-.435c-.135-.196-.202-.442-.202-.738V7.915Zm4.08 3.17V14h-.955V7.455h.943V9.89h.06c.116-.264.292-.474.528-.63.237-.155.546-.233.927-.233.337 0 .63.07.882.208.254.138.45.345.588.62.14.272.211.613.211 1.022V14h-.956v-3.008c0-.36-.092-.639-.278-.837-.185-.2-.443-.3-.773-.3-.226 0-.428.048-.607.144a1.037 1.037 0 0 0-.419.421c-.1.184-.15.405-.15.665Z" fill="#fcfcfc"/>
</svg>